<svg xmlns="http://www.w3.org/2000/svg" viewBox="0 0 929.09 992.04"><defs><style>.cls-1{fill:#76a5cc;stroke:#76a5cc;stroke-width:0.09px;}</style></defs><title>Asset 1</title><g id="Layer_2" data-name="Layer 2"><g id="Layer_1-2" data-name="Layer 1"><path id="path7" class="cls-1" d="M633,35.87C655.48,14.12,686.49,3.05,717.24.41A110.69,110.69,0,0,1,790.7,21.07c5.91,3.85,10.7,9.18,16.55,13.08,15.55,1.13,31.11-1.35,46.65-.37,13.14,1.82,25.87,6,38.11,11,15.82,9.22,29,24,34.31,41.69,3.46,11.5,3,23.68,2.07,35.52-1,11.15-2.85,22.72-9,32.29-5.62,8.55-12.16,16.46-18.74,24.29-8.73,10.06-22,15.27-35.15,15.52-1.68-15.15-4.43-31.53-15.37-43-11-11.23-28.37-12.48-42.93-9.12,3,5.31,4.57,11.21,5.81,17.14,5.82,14.69,20.76,22.89,35.52,26.13-8.57,15.44-27,20.44-43.4,22.2-21.6,3-44.74,4.43-65-5.31-7.22,7.18-11.4,18.41-6.28,28,11.61,20.07,24.7,40.1,43.89,53.77,7.26,5,14.63,10.55,18.35,18.85,9.12,18.37,11.9,39.07,14.2,59.24,2.5,23.37,3.12,46.9,3.16,70.39,0,31.61-7.36,62.71-17.49,92.49-8.42,25.62-19.2,51.39-38.45,70.86C733,622,697.62,634.72,662.84,639.6c-16.69,2.68-33.82.53-50.37,4.26-19.1,4-36.93,12.63-53.35,23-15.13,9.51-30.24,19.1-45,29.25-8.88,6.54-18.19,13.22-24.21,22.67-1.66,3.06-4.23,7.16-1.11,10.23,20.68,27,40.28,54.75,60.76,81.87,10.66,13,19.7,27.16,29.53,40.77,18.27,25.77,37,51.22,56,76.48h60.56c9,0,18.3.26,26.64,4.08-1.45,2.15-2.21,5.74-5.53,5.51-12.2.84-24.41-1.27-36.63-.45-13,.86-26.16,2.4-38.29,7.4,4.16,4.61,10.74,4.41,16.4,5.33,21.31,2.21,43,1.72,63.93,6.74,3.38.58,6,2.91,8.36,5.19-17.81-1.17-35.91-3.69-53.58.26a47.43,47.43,0,0,1-39.36-6.86c-9.85,8-23.18,12.56-35.58,8.16-8.3-3.39-19.27-3.92-25.31,3.89-2.07,1.23-3.43,6-6.34,3.94-1.68-3.49.68-6.83,2.63-9.54,7.93-10.35,19.67-18.3,32.89-19.51a70.05,70.05,0,0,0-7.66-14c-18.31-26.77-39.93-51.06-61.52-75.19a1006.65,1006.65,0,0,1-68.09-78.4,58.91,58.91,0,0,0-7.42-8.12c-16.56-14.65-27.9-34-38.54-53.09-7.21-15.08,7.81-29.72,3.06-45.22-9.55-.77-19.13-1-28.72-1.12-3.63-.25-6.74,2-9.92,3.36a667,667,0,0,0-59.59,34.19c-9.59,7-20.95,15.62-22,28.47-.35,33.27,4.92,66.78,16.83,97.9,4.38,11.62,10,22.69,14.84,34.13,11.41,27,21.64,54.5,30.89,82.32,25.31-.45,50.65-2.95,75.94-1a29.46,29.46,0,0,1,11.91,3.19c-8.12,5.6-18.32,5.46-27.75,6.09-17.57.49-35.92-.76-52.5,6.13,2,1.8,4,3.93,6.81,4.39,17.13,4.46,35,4.46,52.21,8.56,7,1.83,15,2.69,20.27,8.18-1.66,6.56-9.33,5.74-14.54,4.94-13.83-2.81-27.91-6.7-42.12-4.45-14.82,1.3-31,3.69-44.6-4-7.77,3.61-14.51,10-23.25,11.66-7.29,2.22-14.2-1.88-21.34-2.54-7.23-.45-14.32,1.39-21.35,2.77-.45-6-.48-13.14,4.9-17.08,10.28-7.6,23.79-7.62,36-8,5-11.87,1.58-25.07-4.1-36-8.86-16.52-17.73-33-26.77-49.42-10.74-20.41-18.06-42.37-25.32-64.18-8.09-25.66-17.68-51.08-21.23-77.87-3.79-25.74,6.7-53.36,27.51-69.24,11.82-10.07,28.43-13.65,38.08-26.34,3.82-4.7,2.46-11.83-2.27-15.37a59.87,59.87,0,0,0-38.72-12.63c-19.21.45-37.9,6.09-55.49,13.51-18.33,7.7-36.73,16.78-50.78,31.19-14.81,15.19-31,29-47.26,42.52C108.55,712.12,92,722.84,89.65,741c-.86,15.62,2.42,31.26,1.31,46.92-.82,4.92-3,11-8.48,12.26-6.44.86-12.16-3.2-17.1-6.81-7.83-6.48-16.27-12.28-23.55-19.41a158.84,158.84,0,0,1-30.52-41.65c-9.7-19.6-12-41.92-11.07-63.5.17-28.66,4.65-58.61,20.91-82.9a93.28,93.28,0,0,1,25-25c-.13-25.56.88-53.17,15.47-75.2,12.12-15.7,28.19-28.48,38-45.92,11.81-33,33.54-61.86,60.57-83.94,14-11.8,29.69-21.32,45.1-31.13,26.71-16.92,53.4-33.93,80.6-50.08a408.23,408.23,0,0,1,90.85-36c26.44-6.62,53.43-12.38,80.82-12.09A264.93,264.93,0,0,1,586,260.9c9.62,4.9,17.32,13.59,28,16.13-4-11.62-10.18-22.39-13.73-34.19-13-39.87-20.79-83.43-9.76-124.71,7-30.3,19.43-60.59,42.47-82.24Z"/></g></g></svg>